<?xml version="1.0" encoding="iso-8859-1"?>
<!-- Generator: Adobe Illustrator 19.0.0, SVG Export Plug-In . SVG Version: 6.00 Build 0)  -->
<svg version="1.1" id="Layer_1" xmlns="http://www.w3.org/2000/svg" xmlns:xlink="http://www.w3.org/1999/xlink" x="0px" y="0px"
	 viewBox="0 0 512.001 512.001" style="enable-background:new 0 0 512.001 512.001;" xml:space="preserve">
<path style="fill:#69563D;" d="M348.926,120.118H163.075c-9.842,0-17.82-7.978-17.82-17.82V61.156C145.254,27.434,172.69,0,206.41,0
	h99.181c33.722,0,61.156,27.434,61.156,61.156v41.143C366.747,112.14,358.768,120.118,348.926,120.118z M180.895,84.479h150.212
	V61.156c0-14.07-11.446-25.517-25.517-25.517H206.41c-14.069,0-25.516,11.446-25.516,25.517v23.323H180.895z"/>
<path style="fill:#927856;" d="M456.95,492.953l-24.992-392.053c-0.596-9.343-7.77-16.593-16.419-16.593H96.463
	c-8.65,0-15.823,7.25-16.419,16.593L55.051,492.953c-0.314,4.929,1.274,9.775,4.388,13.387c3.113,3.61,7.47,5.661,12.032,5.661
	h369.062c4.561,0,8.918-2.05,12.032-5.661C455.675,502.728,457.264,497.882,456.95,492.953z"/>
<path style="fill:#7E6749;" d="M456.95,492.953l-24.992-392.053c-0.596-9.343-7.77-16.593-16.419-16.593H255.482V512h185.05
	c4.561,0,8.92-2.05,12.032-5.661S457.265,497.882,456.95,492.953z"/>
<circle style="fill:#F8DAAB;" cx="255.477" cy="288.141" r="98.451"/>
<path style="fill:#F1B559;" d="M255.482,189.686v196.91c54.375,0,98.455-44.08,98.455-98.455S309.857,189.686,255.482,189.686z"/>
<g>
</g>
<g>
</g>
<g>
</g>
<g>
</g>
<g>
</g>
<g>
</g>
<g>
</g>
<g>
</g>
<g>
</g>
<g>
</g>
<g>
</g>
<g>
</g>
<g>
</g>
<g>
</g>
<g>
</g>
</svg>
