<svg width="538" height="409" viewBox="0 0 538 409" fill="none" xmlns="http://www.w3.org/2000/svg">
<path d="M537.6 225.828H397.6V227.828H537.6V225.828Z" fill="#F2F2F2"/>
<path d="M437.6 207.828H435.6V226.328H437.6V207.828Z" fill="#F2F2F2"/>
<path d="M298.411 367.104H61.625V365.401H296.707V282.781H81.531L71.078 261.004L72.614 260.267L82.603 281.077H298.411V367.104Z" fill="#2F2E41"/>
<path d="M93.1406 408.839C103.019 408.839 111.027 400.831 111.027 390.953C111.027 381.074 103.019 373.066 93.1406 373.066C83.2621 373.066 75.2539 381.074 75.2539 390.953C75.2539 400.831 83.2621 408.839 93.1406 408.839Z" fill="#3F3D56"/>
<path d="M269.451 408.839C279.33 408.839 287.338 400.831 287.338 390.953C287.338 381.074 279.33 373.066 269.451 373.066C259.573 373.066 251.564 381.074 251.564 390.953C251.564 400.831 259.573 408.839 269.451 408.839Z" fill="#3F3D56"/>
<path d="M477.28 22.1455C483.395 22.1455 488.353 17.1881 488.353 11.0728C488.353 4.95745 483.395 0 477.28 0C471.164 0 466.207 4.95745 466.207 11.0728C466.207 17.1881 471.164 22.1455 477.28 22.1455Z" fill="#3F3D56"/>
<path d="M323.737 254.673H57.5883L0 66.4365H383.044L382.696 67.544L323.737 254.673ZM58.8484 252.969H322.488L380.722 68.1399H2.30238L58.8484 252.969Z" fill="#2F2E41"/>
<path d="M302.961 244.878H69.1933L18.6113 77.9348H355.052L354.746 78.9177L302.961 244.878Z" fill="#F2F2F2"/>
<path d="M387.817 49.6197L386.17 49.1827L397.411 6.81372H462.8V8.5177H398.722L387.817 49.6197Z" fill="#2F2E41"/>
<path d="M363.902 123.504H18.6094V125.207H363.902V123.504Z" fill="#2F2E41"/>
<path d="M344.129 186.263H37.8105V187.967H344.129V186.263Z" fill="#2F2E41"/>
<path d="M192.37 67.2882H190.666V253.821H192.37V67.2882Z" fill="#2F2E41"/>
<path d="M268.637 67.2347L256.408 253.763L258.108 253.875L270.337 67.3462L268.637 67.2347Z" fill="#2F2E41"/>
<path d="M114.433 67.2328L112.732 67.3436L124.89 253.877L126.59 253.766L114.433 67.2328Z" fill="#2F2E41"/>
</svg>
